<svg width="395" height="711" viewBox="0 0 395 711" fill="none" xmlns="http://www.w3.org/2000/svg">
<path d="M292.715 24.9882C293.288 25.1472 293.754 25.2785 294.107 25.3789C294.052 25.8932 293.973 26.6403 293.871 27.6077C293.659 29.6122 293.349 32.5622 292.955 36.3444C292.168 43.9087 291.047 54.802 289.711 68.1185C287.038 94.7511 283.504 131.077 280.061 169.85C273.178 247.363 266.648 334.755 268.101 373.967C269.552 413.138 276.44 489.982 282.962 557.003C286.224 590.52 289.395 621.591 291.75 644.282C292.928 655.628 293.902 664.879 294.581 671.293C294.921 674.501 295.187 676.999 295.368 678.696C295.454 679.502 295.521 680.127 295.568 680.561C295.216 680.715 294.726 680.926 294.108 681.187C292.722 681.772 290.688 682.606 288.106 683.598C282.941 685.583 275.586 688.2 266.833 690.727C249.311 695.785 226.25 700.461 203.954 699.022C181.565 697.577 157.344 693.24 138.704 689.26C129.387 687.27 121.473 685.371 115.888 683.969C113.096 683.269 110.887 682.693 109.376 682.292C108.751 682.126 108.246 681.99 107.869 681.888C107.913 681.439 107.975 680.813 108.053 680.02C108.228 678.245 108.485 675.629 108.811 672.268C109.464 665.544 110.397 655.834 111.517 643.887C113.756 619.995 116.741 587.156 119.727 551.373C125.696 479.823 131.67 396.449 131.67 349.3C131.67 302.137 124.241 221.647 116.819 152.993C113.107 118.656 109.395 87.2633 106.612 64.4554C105.22 53.0514 104.06 43.7932 103.248 37.3858C102.842 34.1821 102.523 31.6911 102.305 30.0009C102.207 29.2348 102.129 28.6332 102.073 28.2044C102.457 28.0604 102.987 27.8635 103.655 27.6208C105.164 27.0715 107.376 26.2875 110.175 25.3507C115.774 23.477 123.724 20.993 133.119 18.5542C151.922 13.673 176.457 8.98886 199.509 9.70955C222.616 10.432 246.465 14.4045 264.552 18.2024C273.592 20.1006 281.185 21.9535 286.517 23.3315C289.182 24.0205 291.282 24.5906 292.715 24.9882Z" fill="#1C1717" stroke="#EBEFF0" stroke-width="2" stroke-miterlimit="10"/>
<path d="M302.472 18.8831C302.831 19.1031 303.101 19.2795 303.288 19.4061C303.316 19.609 303.354 19.8815 303.401 20.2202C303.514 21.0336 303.684 22.2286 303.906 23.7563C304.351 26.8116 305.009 31.1979 305.862 36.5245C307.568 47.1768 310.055 61.5942 313.177 76.6493C316.298 91.7002 320.059 107.409 324.315 120.637C326.444 127.25 328.701 133.262 331.073 138.268C333.067 142.478 335.164 146.026 337.366 148.627C336.714 148.753 335.887 148.91 334.899 149.097C332.176 149.612 328.227 150.347 323.324 151.23C313.519 152.995 299.902 155.348 284.656 157.702C254.146 162.412 217.181 167.11 191.18 167.11C165.165 167.11 131.525 163.495 104.358 159.874C90.7816 158.064 78.8334 156.254 70.2797 154.896C66.003 154.218 62.5752 153.652 60.2171 153.256C59.2831 153.1 58.5169 152.97 57.9323 152.87C58.2013 152.354 58.5485 151.682 58.9642 150.865C60.0296 148.771 61.5456 145.722 63.3505 141.897C66.9599 134.247 71.727 123.487 76.3585 111.045C85.5672 86.3068 94.2927 54.7829 92.2052 27.8185C92.3395 27.636 92.5521 27.3607 92.855 27.0057C93.4656 26.29 94.4442 25.2494 95.8898 23.9912C98.7804 21.4753 103.545 18.0839 110.98 14.6792C125.853 7.86884 151.428 1 194.08 1C236.763 1 264.205 5.70229 280.947 10.3831C289.317 12.7233 295.012 15.0579 298.599 16.7962C300.393 17.6653 301.66 18.3856 302.472 18.8831Z" fill="#1C1717" stroke="#EBEFF0" stroke-width="2" stroke-miterlimit="10"/>
<path d="M320.144 603.764C310 628.134 300.079 659.301 301.136 686.322C300.995 686.5 300.772 686.766 300.456 687.109C299.818 687.801 298.801 688.803 297.308 690.005C294.324 692.409 289.434 695.615 281.874 698.733C266.752 704.97 240.935 710.857 198.318 709.231C155.665 707.603 128.42 701.86 111.867 696.545C103.591 693.888 97.9888 691.339 94.4695 689.466C92.7099 688.529 91.4708 687.761 90.6785 687.233C90.3282 687 90.0651 686.813 89.883 686.68C89.8629 686.476 89.8357 686.202 89.8013 685.862C89.7188 685.045 89.5954 683.844 89.4313 682.309C89.1032 679.239 88.6128 674.83 87.9634 669.475C86.6648 658.765 84.7296 644.262 82.1838 629.098C79.6387 613.938 76.4799 598.097 72.7311 584.716C70.8568 578.025 68.83 571.932 66.6511 566.838C64.8188 562.555 62.8588 558.93 60.7583 556.246C61.4147 556.146 62.2466 556.02 63.2408 555.871C65.9815 555.46 69.9558 554.876 74.8881 554.181C84.753 552.791 98.4489 550.958 113.772 549.187C144.439 545.643 181.556 542.357 207.542 543.349C233.542 544.341 267.02 549.237 294.028 553.892C307.525 556.218 319.395 558.482 327.89 560.165C332.138 561.006 335.541 561.702 337.882 562.188C338.812 562.38 339.574 562.54 340.155 562.662C339.866 563.169 339.492 563.83 339.043 564.635C337.898 566.687 336.267 569.676 334.318 573.43C330.42 580.937 325.246 591.508 320.144 603.764Z" fill="#1C1717" stroke="#EBEFF0" stroke-width="2" stroke-miterlimit="10"/>
<g filter="url(#filter0_d_29_207)">
<path d="M305.11 130.39H86.8C42.1754 130.39 6 166.565 6 211.19V503.21C6 547.835 42.1754 584.01 86.8 584.01H305.11C349.735 584.01 385.91 547.835 385.91 503.21V211.19C385.91 166.565 349.735 130.39 305.11 130.39Z" fill="#1C1717"/>
<path d="M305.11 129.39H86.8C41.6231 129.39 5 166.013 5 211.19V503.21C5 548.387 41.6231 585.01 86.8 585.01H305.11C350.287 585.01 386.91 548.387 386.91 503.21V211.19C386.91 166.013 350.287 129.39 305.11 129.39Z" stroke="#EBEFF0" stroke-width="2" stroke-miterlimit="10"/>
</g>
<path d="M294.47 155.81H97.44C57.5816 155.81 25.27 188.122 25.27 227.98V486.42C25.27 526.278 57.5816 558.59 97.44 558.59H294.47C334.328 558.59 366.64 526.278 366.64 486.42V227.98C366.64 188.122 334.328 155.81 294.47 155.81Z" fill="#EBEFF0" stroke="#1C1717" stroke-width="0.5" stroke-miterlimit="10"/>
<path d="M386.13 335.76C395.834 335.76 395.086 377.76 386.13 377.76V335.76Z" fill="#EBEFF0"/>
<path d="M386.13 335.76C395.834 335.76 395.086 377.76 386.13 377.76" stroke="#1C1717" stroke-width="2" stroke-miterlimit="10"/>
<path d="M166.63 151.76V137.768H161.218V136.36H173.67V137.768H168.258V151.76H166.63ZM175.941 151.76V140.21H177.503V151.76H175.941ZM176.733 137.658C176.41 137.658 176.139 137.548 175.919 137.328C175.699 137.108 175.589 136.844 175.589 136.536C175.589 136.228 175.699 135.971 175.919 135.766C176.139 135.546 176.41 135.436 176.733 135.436C177.055 135.436 177.327 135.539 177.547 135.744C177.767 135.949 177.877 136.206 177.877 136.514C177.877 136.837 177.767 137.108 177.547 137.328C177.341 137.548 177.07 137.658 176.733 137.658ZM183.587 147.932L183.521 145.952L192.849 136.36H194.719L187.921 143.488L186.997 144.478L183.587 147.932ZM182.179 151.76V136.36H183.807V151.76H182.179ZM193.245 151.76L186.601 144.104L187.701 142.916L195.181 151.76H193.245ZM197.859 147.426C197.565 147.426 197.287 147.353 197.023 147.206C196.773 147.059 196.575 146.861 196.429 146.612C196.282 146.363 196.209 146.069 196.209 145.732C196.209 145.424 196.282 145.145 196.429 144.896C196.575 144.647 196.773 144.449 197.023 144.302C197.287 144.155 197.565 144.082 197.859 144.082C198.152 144.082 198.423 144.155 198.673 144.302C198.922 144.449 199.12 144.647 199.267 144.896C199.428 145.145 199.509 145.424 199.509 145.732C199.509 146.069 199.428 146.363 199.267 146.612C199.12 146.861 198.922 147.059 198.673 147.206C198.423 147.353 198.152 147.426 197.859 147.426ZM205.882 151.76V137.768H200.47V136.36H212.922V137.768H207.51V151.76H205.882ZM221.786 151.76V149.208L221.72 148.79V144.522C221.72 143.539 221.442 142.784 220.884 142.256C220.342 141.728 219.528 141.464 218.442 141.464C217.694 141.464 216.983 141.589 216.308 141.838C215.634 142.087 215.062 142.417 214.592 142.828L213.888 141.662C214.475 141.163 215.179 140.782 216 140.518C216.822 140.239 217.687 140.1 218.596 140.1C220.092 140.1 221.244 140.474 222.05 141.222C222.872 141.955 223.282 143.077 223.282 144.588V151.76H221.786ZM217.804 151.87C216.939 151.87 216.184 151.731 215.538 151.452C214.908 151.159 214.424 150.763 214.086 150.264C213.749 149.751 213.58 149.164 213.58 148.504C213.58 147.903 213.72 147.36 213.998 146.876C214.292 146.377 214.761 145.981 215.406 145.688C216.066 145.38 216.946 145.226 218.046 145.226H222.028V146.392H218.09C216.976 146.392 216.198 146.59 215.758 146.986C215.333 147.382 215.12 147.873 215.12 148.46C215.12 149.12 215.377 149.648 215.89 150.044C216.404 150.44 217.122 150.638 218.046 150.638C218.926 150.638 219.682 150.44 220.312 150.044C220.958 149.633 221.427 149.047 221.72 148.284L222.072 149.362C221.779 150.125 221.266 150.733 220.532 151.188C219.814 151.643 218.904 151.87 217.804 151.87ZM229.263 147.932L229.197 145.952L238.525 136.36H240.395L233.597 143.488L232.673 144.478L229.263 147.932ZM227.855 151.76V136.36H229.483V151.76H227.855ZM238.921 151.76L232.277 144.104L233.377 142.916L240.857 151.76H238.921Z" fill="#EBEFF0"/>
<path d="M282.52 172.29H109.39C73.3754 172.29 44.1799 201.486 44.1799 237.5V476.91C44.1799 512.925 73.3754 542.12 109.39 542.12H282.52C318.534 542.12 347.73 512.925 347.73 476.91V237.5C347.73 201.486 318.534 172.29 282.52 172.29Z" fill="#1C1717" stroke="#1C1717" stroke-width="0.5" stroke-miterlimit="10"/>
<path d="M112.182 391.76V326.1L115.318 329.432H96.0119V323.16H119.238V391.76H112.182ZM134.362 391.76V386.762L162.88 358.832C165.493 356.284 167.453 354.063 168.76 352.168C170.067 350.208 170.949 348.379 171.406 346.68C171.863 344.981 172.092 343.381 172.092 341.878C172.092 337.893 170.72 334.757 167.976 332.47C165.297 330.183 161.312 329.04 156.02 329.04C151.969 329.04 148.376 329.661 145.24 330.902C142.169 332.143 139.523 334.071 137.302 336.684L132.304 332.372C134.983 329.236 138.413 326.819 142.594 325.12C146.775 323.421 151.447 322.572 156.608 322.572C161.247 322.572 165.265 323.323 168.662 324.826C172.059 326.263 174.673 328.387 176.502 331.196C178.397 334.005 179.344 337.305 179.344 341.094C179.344 343.315 179.017 345.504 178.364 347.66C177.776 349.816 176.665 352.103 175.032 354.52C173.464 356.872 171.145 359.551 168.074 362.556L141.908 388.232L139.948 385.488H182.48V391.76H134.362ZM196.627 350.502C195.19 350.502 193.949 349.979 192.903 348.934C191.923 347.889 191.433 346.615 191.433 345.112C191.433 343.544 191.923 342.27 192.903 341.29C193.949 340.31 195.19 339.82 196.627 339.82C198.065 339.82 199.273 340.31 200.253 341.29C201.299 342.27 201.821 343.544 201.821 345.112C201.821 346.615 201.299 347.889 200.253 348.934C199.273 349.979 198.065 350.502 196.627 350.502ZM196.627 392.25C195.19 392.25 193.949 391.727 192.903 390.682C191.923 389.637 191.433 388.363 191.433 386.86C191.433 385.292 191.923 384.018 192.903 383.038C193.949 382.058 195.19 381.568 196.627 381.568C198.065 381.568 199.273 382.058 200.253 383.038C201.299 384.018 201.821 385.292 201.821 386.86C201.821 388.363 201.299 389.637 200.253 390.682C199.273 391.727 198.065 392.25 196.627 392.25ZM224.059 391.76V326.1L227.195 329.432H207.889V323.16H231.115V391.76H224.059ZM246.239 391.76V386.762L274.757 358.832C277.37 356.284 279.33 354.063 280.637 352.168C281.944 350.208 282.826 348.379 283.283 346.68C283.74 344.981 283.969 343.381 283.969 341.878C283.969 337.893 282.597 334.757 279.853 332.47C277.174 330.183 273.189 329.04 267.897 329.04C263.846 329.04 260.253 329.661 257.117 330.902C254.046 332.143 251.4 334.071 249.179 336.684L244.181 332.372C246.86 329.236 250.29 326.819 254.471 325.12C258.652 323.421 263.324 322.572 268.485 322.572C273.124 322.572 277.142 323.323 280.539 324.826C283.936 326.263 286.55 328.387 288.379 331.196C290.274 334.005 291.221 337.305 291.221 341.094C291.221 343.315 290.894 345.504 290.241 347.66C289.653 349.816 288.542 352.103 286.909 354.52C285.341 356.872 283.022 359.551 279.951 362.556L253.785 388.232L251.825 385.488H294.357V391.76H246.239Z" fill="#EBEFF0"/>
<path d="M118.55 515.76V494.76H120.77V513.84H132.53V515.76H118.55ZM142.042 515.91C140.702 515.91 139.532 515.66 138.532 515.16C137.532 514.66 136.752 513.91 136.192 512.91C135.652 511.91 135.382 510.66 135.382 509.16V500.01H137.512V508.92C137.512 510.6 137.922 511.87 138.742 512.73C139.582 513.57 140.752 513.99 142.252 513.99C143.352 513.99 144.302 513.77 145.102 513.33C145.922 512.87 146.542 512.21 146.962 511.35C147.402 510.49 147.622 509.46 147.622 508.26V500.01H149.752V515.76H147.712V511.44L148.042 512.22C147.542 513.38 146.762 514.29 145.702 514.95C144.662 515.59 143.442 515.91 142.042 515.91ZM163.728 499.86C165.008 499.86 166.128 500.11 167.088 500.61C168.068 501.09 168.828 501.83 169.368 502.83C169.928 503.83 170.208 505.09 170.208 506.61V515.76H168.078V506.82C168.078 505.16 167.658 503.91 166.818 503.07C165.998 502.21 164.838 501.78 163.338 501.78C162.218 501.78 161.238 502.01 160.398 502.47C159.578 502.91 158.938 503.56 158.478 504.42C158.038 505.26 157.818 506.28 157.818 507.48V515.76H155.688V500.01H157.728V504.33L157.398 503.52C157.898 502.38 158.698 501.49 159.798 500.85C160.898 500.19 162.208 499.86 163.728 499.86ZM176.171 515.91C175.731 515.91 175.351 515.75 175.031 515.43C174.731 515.11 174.581 514.72 174.581 514.26C174.581 513.78 174.731 513.39 175.031 513.09C175.351 512.79 175.731 512.64 176.171 512.64C176.611 512.64 176.981 512.79 177.281 513.09C177.601 513.39 177.761 513.78 177.761 514.26C177.761 514.72 177.601 515.11 177.281 515.43C176.981 515.75 176.611 515.91 176.171 515.91ZM197.13 515.94C195.51 515.94 194.07 515.52 192.81 514.68C191.55 513.82 190.56 512.6 189.84 511.02C189.12 509.42 188.76 507.5 188.76 505.26C188.76 503.02 189.12 501.11 189.84 499.53C190.56 497.93 191.55 496.71 192.81 495.87C194.07 495.01 195.51 494.58 197.13 494.58C198.75 494.58 200.19 495.01 201.45 495.87C202.71 496.71 203.7 497.93 204.42 499.53C205.16 501.11 205.53 503.02 205.53 505.26C205.53 507.5 205.16 509.42 204.42 511.02C203.7 512.6 202.71 513.82 201.45 514.68C200.19 515.52 198.75 515.94 197.13 515.94ZM197.13 513.96C198.37 513.96 199.45 513.63 200.37 512.97C201.29 512.29 202.01 511.31 202.53 510.03C203.05 508.73 203.31 507.14 203.31 505.26C203.31 503.38 203.05 501.8 202.53 500.52C202.01 499.22 201.29 498.24 200.37 497.58C199.45 496.9 198.37 496.56 197.13 496.56C195.93 496.56 194.86 496.9 193.92 497.58C192.98 498.24 192.25 499.22 191.73 500.52C191.21 501.8 190.95 503.38 190.95 505.26C190.95 507.14 191.21 508.73 191.73 510.03C192.25 511.31 192.98 512.29 193.92 512.97C194.86 513.63 195.93 513.96 197.13 513.96ZM212.283 515.76V495.66L213.243 496.68H207.333V494.76H214.443V515.76H212.283ZM231.425 515.94C230.245 515.94 229.135 515.68 228.095 515.16C227.075 514.64 226.255 513.9 225.635 512.94L226.925 511.44C227.505 512.28 228.175 512.92 228.935 513.36C229.695 513.8 230.535 514.02 231.455 514.02C234.055 514.02 235.355 512.48 235.355 509.4V496.68H227.675V494.76H237.545V509.31C237.545 511.53 237.025 513.19 235.985 514.29C234.965 515.39 233.445 515.94 231.425 515.94ZM253.624 515.76V512.28L253.534 511.71V505.89C253.534 504.55 253.154 503.52 252.394 502.8C251.654 502.08 250.544 501.72 249.064 501.72C248.044 501.72 247.074 501.89 246.154 502.23C245.234 502.57 244.454 503.02 243.814 503.58L242.854 501.99C243.654 501.31 244.614 500.79 245.734 500.43C246.854 500.05 248.034 499.86 249.274 499.86C251.314 499.86 252.884 500.37 253.984 501.39C255.104 502.39 255.664 503.92 255.664 505.98V515.76H253.624ZM248.194 515.91C247.014 515.91 245.984 515.72 245.104 515.34C244.244 514.94 243.584 514.4 243.124 513.72C242.664 513.02 242.434 512.22 242.434 511.32C242.434 510.5 242.624 509.76 243.004 509.1C243.404 508.42 244.044 507.88 244.924 507.48C245.824 507.06 247.024 506.85 248.524 506.85H253.954V508.44H248.584C247.064 508.44 246.004 508.71 245.404 509.25C244.824 509.79 244.534 510.46 244.534 511.26C244.534 512.16 244.884 512.88 245.584 513.42C246.284 513.96 247.264 514.23 248.524 514.23C249.724 514.23 250.754 513.96 251.614 513.42C252.494 512.86 253.134 512.06 253.534 511.02L254.014 512.49C253.614 513.53 252.914 514.36 251.914 514.98C250.934 515.6 249.694 515.91 248.194 515.91ZM269.489 499.86C270.769 499.86 271.889 500.11 272.849 500.61C273.829 501.09 274.589 501.83 275.129 502.83C275.689 503.83 275.969 505.09 275.969 506.61V515.76H273.839V506.82C273.839 505.16 273.419 503.91 272.579 503.07C271.759 502.21 270.599 501.78 269.099 501.78C267.979 501.78 266.999 502.01 266.159 502.47C265.339 502.91 264.699 503.56 264.239 504.42C263.799 505.26 263.579 506.28 263.579 507.48V515.76H261.449V500.01H263.489V504.33L263.159 503.52C263.659 502.38 264.459 501.49 265.559 500.85C266.659 500.19 267.969 499.86 269.489 499.86ZM281.933 515.91C281.493 515.91 281.113 515.75 280.793 515.43C280.493 515.11 280.343 514.72 280.343 514.26C280.343 513.78 280.493 513.39 280.793 513.09C281.113 512.79 281.493 512.64 281.933 512.64C282.373 512.64 282.743 512.79 283.043 513.09C283.363 513.39 283.523 513.78 283.523 514.26C283.523 514.72 283.363 515.11 283.043 515.43C282.743 515.75 282.373 515.91 281.933 515.91Z" fill="#EBEFF0"/>
<path d="M209.13 190.76H180.13V205.76H209.13V190.76Z" fill="#21ED00"/>
<path d="M221.53 190.49H179.29V206.3H221.53V190.49Z" stroke="#EBEFF0" stroke-width="2" stroke-miterlimit="10"/>
<path d="M225.58 194.44H221.52V202.35H225.58V194.44Z" fill="#EBEFF0" stroke="#EBEFF0" stroke-miterlimit="10"/>
<defs>
<filter id="filter0_d_29_207" x="0" y="128.39" width="391.91" height="465.62" filterUnits="userSpaceOnUse" color-interpolation-filters="sRGB">
<feFlood flood-opacity="0" result="BackgroundImageFix"/>
<feColorMatrix in="SourceAlpha" type="matrix" values="0 0 0 0 0 0 0 0 0 0 0 0 0 0 0 0 0 0 127 0" result="hardAlpha"/>
<feOffset dy="4"/>
<feGaussianBlur stdDeviation="2"/>
<feComposite in2="hardAlpha" operator="out"/>
<feColorMatrix type="matrix" values="0 0 0 0 0 0 0 0 0 0 0 0 0 0 0 0 0 0 0.25 0"/>
<feBlend mode="normal" in2="BackgroundImageFix" result="effect1_dropShadow_29_207"/>
<feBlend mode="normal" in="SourceGraphic" in2="effect1_dropShadow_29_207" result="shape"/>
</filter>
</defs>
</svg>
