<svg width="394" height="712" viewBox="0 0 394 712" fill="none" xmlns="http://www.w3.org/2000/svg">
<path d="M293.488 25.4721C293.546 25.4886 293.599 25.504 293.648 25.5181L293.61 25.8814C293.555 26.3967 293.474 27.1625 293.368 28.1646C293.156 30.1689 292.846 33.1186 292.453 36.9005C291.666 44.4643 290.544 55.357 289.208 68.6728C286.535 95.3042 283.002 131.628 279.559 170.399C272.675 247.924 266.149 335.279 267.6 374.453C269.051 413.606 275.938 490.434 282.46 557.459C285.721 590.975 288.892 622.044 291.247 644.735C292.425 656.08 293.399 665.331 294.078 671.745C294.418 674.952 294.684 677.451 294.865 679.147C294.956 679.995 295.025 680.643 295.072 681.078L295.104 681.376C295.042 681.404 294.971 681.435 294.891 681.47C294.532 681.628 293.998 681.859 293.303 682.152C291.912 682.739 289.873 683.575 287.285 684.569C282.11 686.558 274.741 689.18 265.971 691.712C248.424 696.777 225.3 701.47 202.922 700.025C180.497 698.578 156.25 694.236 137.599 690.253C128.276 688.262 120.356 686.361 114.767 684.959C111.972 684.258 109.761 683.681 108.248 683.279C107.492 683.079 106.91 682.922 106.518 682.815C106.449 682.797 106.386 682.779 106.329 682.764L106.356 682.495C106.401 682.039 106.468 681.362 106.556 680.475C106.731 678.7 106.987 676.085 107.314 672.724C107.967 666 108.9 656.291 110.019 644.345C112.258 620.454 115.243 587.617 118.228 551.836C124.198 480.282 130.17 396.929 130.17 349.804C130.17 302.673 122.744 222.209 115.322 153.551C111.611 119.217 107.899 87.8267 105.115 65.0204C103.724 53.6172 102.564 44.3598 101.752 37.9531C101.346 34.7497 101.027 32.259 100.809 30.5691C100.701 29.7241 100.617 29.0794 100.561 28.6458L100.527 28.3806C100.593 28.3553 100.669 28.3267 100.754 28.2948C101.145 28.1472 101.727 27.9306 102.484 27.6553C103.997 27.1047 106.213 26.3192 109.016 25.3809C114.624 23.5043 122.585 21.0168 131.993 18.5746C150.816 13.6884 175.403 8.99134 198.524 9.71419C221.673 10.4379 245.554 14.4167 263.655 18.2175C272.703 20.1175 280.304 21.9723 285.642 23.3518C288.311 24.0416 290.413 24.6125 291.849 25.0108C292.566 25.2099 293.117 25.3659 293.488 25.4721Z" fill="#EBEFF0" stroke="#1C1717" stroke-miterlimit="10"/>
<path d="M302.64 19.5452C302.683 19.5747 302.721 19.601 302.753 19.624L302.768 19.7288C302.796 19.9382 302.839 20.2492 302.896 20.6554C303.009 21.468 303.178 22.662 303.401 24.1887C303.845 27.2419 304.503 31.6259 305.356 36.9499C307.061 47.5973 309.546 62.0068 312.667 77.0522C315.786 92.0954 319.543 107.785 323.791 120.988C325.916 127.59 328.166 133.579 330.525 138.559C332.686 143.121 334.952 146.866 337.317 149.458C337.256 149.47 337.192 149.482 337.125 149.495C336.41 149.633 335.354 149.835 333.992 150.093C331.267 150.608 327.317 151.343 322.412 152.226C312.604 153.992 298.983 156.346 283.732 158.7C253.222 163.41 216.223 168.114 190.18 168.114C164.13 168.114 130.462 164.496 103.292 160.874C89.7104 159.063 77.758 157.253 69.2012 155.895C64.9229 155.216 61.4937 154.65 59.1342 154.254C57.9545 154.056 57.0422 153.9 56.425 153.794C56.3336 153.779 56.2486 153.764 56.1702 153.75C56.2046 153.685 56.2415 153.615 56.281 153.54C56.5675 152.994 56.9867 152.188 57.5184 151.143C58.5819 149.053 60.0956 146.008 61.8982 142.188C65.5031 134.547 70.2643 123.801 74.8897 111.375C84.1139 86.5955 92.8246 55.0703 90.6923 28.1794C90.7208 28.1389 90.7562 28.0894 90.799 28.0312C90.9401 27.8391 91.1612 27.5528 91.4745 27.1856C92.1011 26.4512 93.097 25.393 94.5615 24.1184C97.4899 21.5696 102.295 18.1526 109.772 14.729C124.727 7.88131 150.377 1.00439 193.08 1.00439C235.799 1.00439 263.288 5.71054 280.082 10.4059C288.478 12.7535 294.201 15.0983 297.817 16.8506C299.626 17.7268 300.907 18.4548 301.733 18.9612C302.146 19.2143 302.446 19.4121 302.64 19.5452Z" fill="#EBEFF0" stroke="#1C1717" stroke-miterlimit="10"/>
<path d="M65.1911 567.539C63.2053 562.897 61.0838 559.069 58.8198 556.388C58.8813 556.379 58.9458 556.369 59.0133 556.359C59.733 556.248 60.7956 556.086 62.1665 555.881C64.9085 555.47 68.8842 554.885 73.8181 554.19C83.686 552.799 97.3861 550.966 112.715 549.195C143.382 545.651 180.533 542.361 206.561 543.354C232.596 544.348 266.101 549.248 293.112 553.903C306.615 556.231 318.489 558.496 326.987 560.179C331.236 561.021 334.641 561.717 336.983 562.202C338.155 562.445 339.06 562.636 339.673 562.765C339.766 562.785 339.852 562.803 339.931 562.82C339.892 562.886 339.851 562.958 339.807 563.035C339.5 563.569 339.05 564.359 338.479 565.383C337.337 567.431 335.708 570.416 333.761 574.165C329.868 581.663 324.701 592.221 319.606 604.461C309.444 628.871 299.539 660.041 300.643 686.99C300.613 687.029 300.576 687.077 300.531 687.134C300.382 687.32 300.151 687.598 299.823 687.953C299.169 688.662 298.134 689.682 296.622 690.899C293.598 693.334 288.666 696.564 281.064 699.7C265.86 705.97 239.967 711.863 197.299 710.235C154.61 708.606 127.319 702.857 110.714 697.526C102.412 694.86 96.7818 692.3 93.2343 690.411C91.4606 689.467 90.2073 688.691 89.401 688.154C88.9978 687.885 88.7063 687.676 88.5173 687.536C88.4754 687.505 88.4386 687.477 88.4068 687.453L88.3965 687.347C88.3758 687.137 88.3448 686.825 88.3036 686.416C88.2212 685.6 88.0978 684.4 87.9339 682.866C87.606 679.798 87.1159 675.392 86.4668 670.039C85.1688 659.334 83.2346 644.839 80.6904 629.685C78.1467 614.533 74.9913 598.711 71.2494 585.355C69.3785 578.677 67.3585 572.606 65.1911 567.539Z" fill="#EBEFF0" stroke="#1C1717" stroke-miterlimit="10"/>
<g filter="url(#filter0_d_36_102)">
<path d="M304.11 130.894H85.8C41.1754 130.894 5 167.07 5 211.694V503.714C5 548.339 41.1754 584.514 85.8 584.514H304.11C348.735 584.514 384.91 548.339 384.91 503.714V211.694C384.91 167.07 348.735 130.894 304.11 130.894Z" fill="#EBEFF0"/>
<path d="M304.11 130.394H85.8C40.8993 130.394 4.5 166.794 4.5 211.694V503.714C4.5 548.615 40.8993 585.014 85.8 585.014H304.11C349.011 585.014 385.41 548.615 385.41 503.714V211.694C385.41 166.794 349.011 130.394 304.11 130.394Z" stroke="#1C1717" stroke-miterlimit="10"/>
</g>
<path d="M293.47 156.314H96.44C56.5816 156.314 24.27 188.626 24.27 228.484V486.924C24.27 526.783 56.5816 559.094 96.44 559.094H293.47C333.328 559.094 365.64 526.783 365.64 486.924V228.484C365.64 188.626 333.328 156.314 293.47 156.314Z" fill="#EBEFF0" stroke="#1C1717" stroke-width="0.5" stroke-miterlimit="10"/>
<path d="M385.13 336.264C394.833 336.264 394.086 378.264 385.13 378.264V336.264Z" fill="#1C1717"/>
<path d="M385.13 336.264C394.833 336.264 394.086 378.264 385.13 378.264" stroke="#151F43" stroke-width="2" stroke-miterlimit="10"/>
<path d="M165.63 152.264V138.272H160.218V136.864H172.67V138.272H167.258V152.264H165.63ZM174.941 152.264V140.714H176.503V152.264H174.941ZM175.733 138.162C175.41 138.162 175.139 138.052 174.919 137.832C174.699 137.612 174.589 137.348 174.589 137.04C174.589 136.732 174.699 136.476 174.919 136.27C175.139 136.05 175.41 135.94 175.733 135.94C176.055 135.94 176.327 136.043 176.547 136.248C176.767 136.454 176.877 136.71 176.877 137.018C176.877 137.341 176.767 137.612 176.547 137.832C176.341 138.052 176.07 138.162 175.733 138.162ZM182.587 148.436L182.521 146.456L191.849 136.864H193.719L186.921 143.992L185.997 144.982L182.587 148.436ZM181.179 152.264V136.864H182.807V152.264H181.179ZM192.245 152.264L185.601 144.608L186.701 143.42L194.181 152.264H192.245ZM196.859 147.93C196.565 147.93 196.287 147.857 196.023 147.71C195.773 147.564 195.575 147.366 195.429 147.116C195.282 146.867 195.209 146.574 195.209 146.236C195.209 145.928 195.282 145.65 195.429 145.4C195.575 145.151 195.773 144.953 196.023 144.806C196.287 144.66 196.565 144.586 196.859 144.586C197.152 144.586 197.423 144.66 197.673 144.806C197.922 144.953 198.12 145.151 198.267 145.4C198.428 145.65 198.509 145.928 198.509 146.236C198.509 146.574 198.428 146.867 198.267 147.116C198.12 147.366 197.922 147.564 197.673 147.71C197.423 147.857 197.152 147.93 196.859 147.93ZM204.882 152.264V138.272H199.47V136.864H211.922V138.272H206.51V152.264H204.882ZM220.786 152.264V149.712L220.72 149.294V145.026C220.72 144.044 220.441 143.288 219.884 142.76C219.341 142.232 218.527 141.968 217.442 141.968C216.694 141.968 215.983 142.093 215.308 142.342C214.633 142.592 214.061 142.922 213.592 143.332L212.888 142.166C213.475 141.668 214.179 141.286 215 141.022C215.821 140.744 216.687 140.604 217.596 140.604C219.092 140.604 220.243 140.978 221.05 141.726C221.871 142.46 222.282 143.582 222.282 145.092V152.264H220.786ZM216.804 152.374C215.939 152.374 215.183 152.235 214.538 151.956C213.907 151.663 213.423 151.267 213.086 150.768C212.749 150.255 212.58 149.668 212.58 149.008C212.58 148.407 212.719 147.864 212.998 147.38C213.291 146.882 213.761 146.486 214.406 146.192C215.066 145.884 215.946 145.73 217.046 145.73H221.028V146.896H217.09C215.975 146.896 215.198 147.094 214.758 147.49C214.333 147.886 214.12 148.378 214.12 148.964C214.12 149.624 214.377 150.152 214.89 150.548C215.403 150.944 216.122 151.142 217.046 151.142C217.926 151.142 218.681 150.944 219.312 150.548C219.957 150.138 220.427 149.551 220.72 148.788L221.072 149.866C220.779 150.629 220.265 151.238 219.532 151.692C218.813 152.147 217.904 152.374 216.804 152.374ZM228.263 148.436L228.197 146.456L237.525 136.864H239.395L232.597 143.992L231.673 144.982L228.263 148.436ZM226.855 152.264V136.864H228.483V152.264H226.855ZM237.921 152.264L231.277 144.608L232.377 143.42L239.857 152.264H237.921Z" fill="#EBEFF0"/>
<path d="M281.52 172.794H108.39C72.3754 172.794 43.1799 201.99 43.1799 238.004V477.414C43.1799 513.429 72.3754 542.624 108.39 542.624H281.52C317.534 542.624 346.73 513.429 346.73 477.414V238.004C346.73 201.99 317.534 172.794 281.52 172.794Z" fill="#1C1717" stroke="#1C1717" stroke-width="0.5" stroke-miterlimit="10"/>
<path d="M111.182 392.264V326.604L114.318 329.936H95.0119V323.664H118.238V392.264H111.182ZM133.362 392.264V387.266L161.88 359.336C164.493 356.788 166.453 354.567 167.76 352.672C169.067 350.712 169.949 348.883 170.406 347.184C170.863 345.486 171.092 343.885 171.092 342.382C171.092 338.397 169.72 335.261 166.976 332.974C164.297 330.688 160.312 329.544 155.02 329.544C150.969 329.544 147.376 330.165 144.24 331.406C141.169 332.648 138.523 334.575 136.302 337.188L131.304 332.876C133.983 329.74 137.413 327.323 141.594 325.624C145.775 323.926 150.447 323.076 155.608 323.076C160.247 323.076 164.265 323.828 167.662 325.33C171.059 326.768 173.673 328.891 175.502 331.7C177.397 334.51 178.344 337.809 178.344 341.598C178.344 343.82 178.017 346.008 177.364 348.164C176.776 350.32 175.665 352.607 174.032 355.024C172.464 357.376 170.145 360.055 167.074 363.06L140.908 388.736L138.948 385.992H181.48V392.264H133.362ZM195.627 351.006C194.19 351.006 192.949 350.484 191.903 349.438C190.923 348.393 190.433 347.119 190.433 345.616C190.433 344.048 190.923 342.774 191.903 341.794C192.949 340.814 194.19 340.324 195.627 340.324C197.065 340.324 198.273 340.814 199.253 341.794C200.299 342.774 200.821 344.048 200.821 345.616C200.821 347.119 200.299 348.393 199.253 349.438C198.273 350.484 197.065 351.006 195.627 351.006ZM195.627 392.754C194.19 392.754 192.949 392.232 191.903 391.186C190.923 390.141 190.433 388.867 190.433 387.364C190.433 385.796 190.923 384.522 191.903 383.542C192.949 382.562 194.19 382.072 195.627 382.072C197.065 382.072 198.273 382.562 199.253 383.542C200.299 384.522 200.821 385.796 200.821 387.364C200.821 388.867 200.299 390.141 199.253 391.186C198.273 392.232 197.065 392.754 195.627 392.754ZM223.059 392.264V326.604L226.195 329.936H206.889V323.664H230.115V392.264H223.059ZM245.239 392.264V387.266L273.757 359.336C276.37 356.788 278.33 354.567 279.637 352.672C280.944 350.712 281.826 348.883 282.283 347.184C282.74 345.486 282.969 343.885 282.969 342.382C282.969 338.397 281.597 335.261 278.853 332.974C276.174 330.688 272.189 329.544 266.897 329.544C262.846 329.544 259.253 330.165 256.117 331.406C253.046 332.648 250.4 334.575 248.179 337.188L243.181 332.876C245.86 329.74 249.29 327.323 253.471 325.624C257.652 323.926 262.324 323.076 267.485 323.076C272.124 323.076 276.142 323.828 279.539 325.33C282.936 326.768 285.55 328.891 287.379 331.7C289.274 334.51 290.221 337.809 290.221 341.598C290.221 343.82 289.894 346.008 289.241 348.164C288.653 350.32 287.542 352.607 285.909 355.024C284.341 357.376 282.022 360.055 278.951 363.06L252.785 388.736L250.825 385.992H293.357V392.264H245.239Z" fill="#EBEFF0"/>
<path d="M117.55 516.264V495.264H119.77V514.344H131.53V516.264H117.55ZM141.042 516.414C139.702 516.414 138.532 516.164 137.532 515.664C136.532 515.164 135.752 514.414 135.192 513.414C134.652 512.414 134.382 511.164 134.382 509.664V500.514H136.512V509.424C136.512 511.104 136.922 512.374 137.742 513.234C138.582 514.074 139.752 514.494 141.252 514.494C142.352 514.494 143.302 514.274 144.102 513.834C144.922 513.374 145.542 512.714 145.962 511.854C146.402 510.994 146.622 509.964 146.622 508.764V500.514H148.752V516.264H146.712V511.944L147.042 512.724C146.542 513.884 145.762 514.794 144.702 515.454C143.662 516.094 142.442 516.414 141.042 516.414ZM162.728 500.364C164.008 500.364 165.128 500.614 166.088 501.114C167.068 501.594 167.828 502.334 168.368 503.334C168.928 504.334 169.208 505.594 169.208 507.114V516.264H167.078V507.324C167.078 505.664 166.658 504.414 165.818 503.574C164.998 502.714 163.838 502.284 162.338 502.284C161.218 502.284 160.238 502.514 159.398 502.974C158.578 503.414 157.938 504.064 157.478 504.924C157.038 505.764 156.818 506.784 156.818 507.984V516.264H154.688V500.514H156.728V504.834L156.398 504.024C156.898 502.884 157.698 501.994 158.798 501.354C159.898 500.694 161.208 500.364 162.728 500.364ZM175.171 516.414C174.731 516.414 174.351 516.254 174.031 515.934C173.731 515.614 173.581 515.224 173.581 514.764C173.581 514.284 173.731 513.894 174.031 513.594C174.351 513.294 174.731 513.144 175.171 513.144C175.611 513.144 175.981 513.294 176.281 513.594C176.601 513.894 176.761 514.284 176.761 514.764C176.761 515.224 176.601 515.614 176.281 515.934C175.981 516.254 175.611 516.414 175.171 516.414ZM196.13 516.444C194.51 516.444 193.07 516.024 191.81 515.184C190.55 514.324 189.56 513.104 188.84 511.524C188.12 509.924 187.76 508.004 187.76 505.764C187.76 503.524 188.12 501.614 188.84 500.034C189.56 498.434 190.55 497.214 191.81 496.374C193.07 495.514 194.51 495.084 196.13 495.084C197.75 495.084 199.19 495.514 200.45 496.374C201.71 497.214 202.7 498.434 203.42 500.034C204.16 501.614 204.53 503.524 204.53 505.764C204.53 508.004 204.16 509.924 203.42 511.524C202.7 513.104 201.71 514.324 200.45 515.184C199.19 516.024 197.75 516.444 196.13 516.444ZM196.13 514.464C197.37 514.464 198.45 514.134 199.37 513.474C200.29 512.794 201.01 511.814 201.53 510.534C202.05 509.234 202.31 507.644 202.31 505.764C202.31 503.884 202.05 502.304 201.53 501.024C201.01 499.724 200.29 498.744 199.37 498.084C198.45 497.404 197.37 497.064 196.13 497.064C194.93 497.064 193.86 497.404 192.92 498.084C191.98 498.744 191.25 499.724 190.73 501.024C190.21 502.304 189.95 503.884 189.95 505.764C189.95 507.644 190.21 509.234 190.73 510.534C191.25 511.814 191.98 512.794 192.92 513.474C193.86 514.134 194.93 514.464 196.13 514.464ZM211.283 516.264V496.164L212.243 497.184H206.333V495.264H213.443V516.264H211.283ZM230.425 516.444C229.245 516.444 228.135 516.184 227.095 515.664C226.075 515.144 225.255 514.404 224.635 513.444L225.925 511.944C226.505 512.784 227.175 513.424 227.935 513.864C228.695 514.304 229.535 514.524 230.455 514.524C233.055 514.524 234.355 512.984 234.355 509.904V497.184H226.675V495.264H236.545V509.814C236.545 512.034 236.025 513.694 234.985 514.794C233.965 515.894 232.445 516.444 230.425 516.444ZM252.624 516.264V512.784L252.534 512.214V506.394C252.534 505.054 252.154 504.024 251.394 503.304C250.654 502.584 249.544 502.224 248.064 502.224C247.044 502.224 246.074 502.394 245.154 502.734C244.234 503.074 243.454 503.524 242.814 504.084L241.854 502.494C242.654 501.814 243.614 501.294 244.734 500.934C245.854 500.554 247.034 500.364 248.274 500.364C250.314 500.364 251.884 500.874 252.984 501.894C254.104 502.894 254.664 504.424 254.664 506.484V516.264H252.624ZM247.194 516.414C246.014 516.414 244.984 516.224 244.104 515.844C243.244 515.444 242.584 514.904 242.124 514.224C241.664 513.524 241.434 512.724 241.434 511.824C241.434 511.004 241.624 510.264 242.004 509.604C242.404 508.924 243.044 508.384 243.924 507.984C244.824 507.564 246.024 507.354 247.524 507.354H252.954V508.944H247.584C246.064 508.944 245.004 509.214 244.404 509.754C243.824 510.294 243.534 510.964 243.534 511.764C243.534 512.664 243.884 513.384 244.584 513.924C245.284 514.464 246.264 514.734 247.524 514.734C248.724 514.734 249.754 514.464 250.614 513.924C251.494 513.364 252.134 512.564 252.534 511.524L253.014 512.994C252.614 514.034 251.914 514.864 250.914 515.484C249.934 516.104 248.694 516.414 247.194 516.414ZM268.489 500.364C269.769 500.364 270.889 500.614 271.849 501.114C272.829 501.594 273.589 502.334 274.129 503.334C274.689 504.334 274.969 505.594 274.969 507.114V516.264H272.839V507.324C272.839 505.664 272.419 504.414 271.579 503.574C270.759 502.714 269.599 502.284 268.099 502.284C266.979 502.284 265.999 502.514 265.159 502.974C264.339 503.414 263.699 504.064 263.239 504.924C262.799 505.764 262.579 506.784 262.579 507.984V516.264H260.449V500.514H262.489V504.834L262.159 504.024C262.659 502.884 263.459 501.994 264.559 501.354C265.659 500.694 266.969 500.364 268.489 500.364ZM280.933 516.414C280.493 516.414 280.113 516.254 279.793 515.934C279.493 515.614 279.343 515.224 279.343 514.764C279.343 514.284 279.493 513.894 279.793 513.594C280.113 513.294 280.493 513.144 280.933 513.144C281.373 513.144 281.743 513.294 282.043 513.594C282.363 513.894 282.523 514.284 282.523 514.764C282.523 515.224 282.363 515.614 282.043 515.934C281.743 516.254 281.373 516.414 280.933 516.414Z" fill="#EBEFF0"/>
<path d="M208.13 191.264H179.13V206.264H208.13V191.264Z" fill="#21ED00"/>
<path d="M220.53 190.994H178.29V206.804H220.53V190.994Z" stroke="#EBEFF0" stroke-width="2" stroke-miterlimit="10"/>
<path d="M224.58 194.944H220.52V202.854H224.58V194.944Z" fill="#EBEFF0" stroke="#EBEFF0" stroke-miterlimit="10"/>
<defs>
<filter id="filter0_d_36_102" x="0" y="129.894" width="389.91" height="463.62" filterUnits="userSpaceOnUse" color-interpolation-filters="sRGB">
<feFlood flood-opacity="0" result="BackgroundImageFix"/>
<feColorMatrix in="SourceAlpha" type="matrix" values="0 0 0 0 0 0 0 0 0 0 0 0 0 0 0 0 0 0 127 0" result="hardAlpha"/>
<feOffset dy="4"/>
<feGaussianBlur stdDeviation="2"/>
<feComposite in2="hardAlpha" operator="out"/>
<feColorMatrix type="matrix" values="0 0 0 0 0 0 0 0 0 0 0 0 0 0 0 0 0 0 0.25 0"/>
<feBlend mode="normal" in2="BackgroundImageFix" result="effect1_dropShadow_36_102"/>
<feBlend mode="normal" in="SourceGraphic" in2="effect1_dropShadow_36_102" result="shape"/>
</filter>
</defs>
</svg>
